<?xml version="1.0" encoding="UTF-8" standalone="no"?> <svg xmlns:dc="http://purl.org/dc/elements/1.1/" xmlns:cc="http://creativecommons.org/ns#" xmlns:rdf="http://www.w3.org/1999/02/22-rdf-syntax-ns#" xmlns:svg="http://www.w3.org/2000/svg" xmlns="http://www.w3.org/2000/svg" xmlns:sodipodi="http://sodipodi.sourceforge.net/DTD/sodipodi-0.dtd" xmlns:inkscape="http://www.inkscape.org/namespaces/inkscape" role="img" viewBox="13.05 4.05 799.99997 400.00001" version="1.1" id="svg376" sodipodi:docname="nodexperts.svg" width="800" height="400" inkscape:version="1.0.2 (e86c8708, 2021-01-15)"><metadata id="metadata382"></metadata><defs id="defs380"></defs><g id="g389" transform="translate(63.05,79.049875)"><path fill="#7fbe43" d="m 28.169,84.172 v 81.656 c 0,8.198 4.374,15.773 11.474,19.872 l 70.715,40.828 c 7.1,4.1 15.847,4.1 22.948,0 L 204.021,185.7 c 7.1,-4.099 11.474,-11.674 11.474,-19.872 V 84.172 c 0,-8.198 -4.374,-15.773 -11.474,-19.872 L 133.306,23.472 c -7.101,-4.099 -15.848,-4.099 -22.948,0 L 39.643,64.3 c -7.1,4.099 -11.474,11.674 -11.474,19.872" id="path366"></path><path fill="#ffffff" d="m 121.832,20.563 c -1.91,0 -3.82,0.492 -5.523,1.475 L 35.425,68.736 c -3.406,1.967 -5.523,5.633 -5.523,9.566 v 93.396 c 0,3.934 2.117,7.6 5.523,9.566 l 80.884,46.698 c 3.407,1.967 7.639,1.967 11.046,0 l 80.883,-46.698 c 3.407,-1.966 5.523,-5.632 5.523,-9.566 V 78.302 c 0,-3.933 -2.116,-7.599 -5.523,-9.566 L 127.355,22.038 c -1.703,-0.983 -3.613,-1.475 -5.523,-1.475 m 0,212.34 c -2.509,0 -5.019,-0.646 -7.257,-1.938 L 33.692,184.267 c -4.476,-2.584 -7.256,-7.4 -7.256,-12.569 V 78.302 c 0,-5.168 2.78,-9.984 7.256,-12.568 l 80.883,-46.698 c 4.476,-2.585 10.037,-2.585 14.513,0 l 80.883,46.698 c 4.476,2.584 7.257,7.4 7.257,12.568 v 93.396 c 0,5.168 -2.781,9.985 -7.257,12.569 l -80.883,46.698 c -2.238,1.292 -4.747,1.938 -7.256,1.938" id="path368"></path><path fill="#fefefe" d="m 139.063,150.374 c -1.781,1.749 -3.056,3.825 -4.667,5.621 -1.049,1.17 -1.998,2.446 -3.139,3.518 -3.096,2.91 -5.466,6.435 -8.292,9.568 -2.006,2.224 -3.962,4.53 -6.213,6.485 -2.315,2.012 -5.097,2.485 -8.208,1.684 -2.46,-0.634 -4.648,-1.934 -7.102,-2.492 -0.788,-0.18 -1.511,-0.459 -2.243,-0.781 -0.797,-0.35 -1.62,-0.616 -2.495,-0.809 -3.094,-0.679 -6.223,-1.35 -9.087,-2.74 -3.808,-1.85 -3.95,-5.784 -1.68,-8.625 2.225,-2.787 4.395,-5.627 6.856,-8.219 0.633,-0.667 1.263,-1.339 1.925,-1.976 2.5,-2.402 4.309,-5.377 6.632,-7.931 1.654,-1.819 3.549,-3.414 5.026,-5.39 2.487,-3.327 5.297,-6.37 8.113,-9.411 0.729,-0.788 1.396,-1.634 2.138,-2.41 0.633,-0.662 0.566,-1.213 -0.034,-1.857 -1.518,-1.628 -2.989,-3.301 -4.499,-4.937 -2.317,-2.511 -4.506,-5.128 -6.621,-7.811 -0.897,-1.138 -1.978,-2.131 -2.981,-3.185 -0.439,-0.463 -0.976,-0.397 -1.494,-0.202 -3.184,1.199 -6.302,2.549 -9.39,3.981 -3.473,1.613 -6.971,3.181 -10.511,4.639 -1.07,0.441 -1.457,0.955 -1.454,2.1 0.035,13.772 -0.117,27.547 0.099,41.316 0.081,5.198 -3.043,8.897 -7.366,10.45 -3.933,1.412 -7.758,3.034 -11.49,4.936 -1.928,0.982 -3.939,1.874 -5.993,2.643 -3.787,1.418 -7.557,-0.452 -7.566,-5.427 -0.017,-10.926 -0.011,-21.851 -0.014,-32.777 -0.003,-12.426 0.063,-24.853 -0.039,-37.278 -0.041,-4.954 3.068,-8.681 7.401,-10.488 3.744,-1.561 7.435,-3.257 11.22,-4.709 2.257,-0.866 4.464,-1.845 6.641,-2.86 2.674,-1.246 5.382,-2.422 8.034,-3.714 3.695,-1.801 7.592,-3.105 11.372,-4.695 2.033,-0.856 4.024,-1.81 6.036,-2.717 2.789,-1.257 5.421,-2.892 8.427,-3.631 2.702,-0.664 5.104,0.186 7.179,1.843 1.34,1.071 2.532,2.341 3.482,3.821 1.151,1.795 2.919,3.033 4.359,4.573 2.208,2.361 4.186,4.904 6.26,7.371 1.461,1.739 3.17,3.234 4.655,4.955 1.633,1.891 3.17,3.851 4.707,5.814 1.563,1.998 1.689,2.111 3.227,0.204 2.7,-3.346 5.693,-6.434 8.372,-9.801 2.505,-3.15 5.214,-6.141 7.891,-9.15 1.584,-1.782 2.996,-3.693 4.488,-5.545 2.259,-2.802 5.111,-4.648 8.832,-4.238 2.376,0.262 4.64,1.224 6.947,1.902 2.841,0.834 5.529,2.133 8.45,2.71 0.445,0.087 0.919,0.235 1.281,0.494 1.221,0.874 2.649,1.045 4.056,1.309 1.626,0.306 3.053,1.092 4.302,2.104 1.801,1.457 1.901,4.488 0.268,6.604 -0.982,1.274 -2.018,2.528 -3.174,3.641 -1.98,1.904 -3.411,4.245 -5.231,6.271 -2.051,2.285 -4.145,4.53 -6.094,6.909 -2.088,2.551 -4.285,5.012 -6.445,7.505 -2.362,2.725 -4.735,5.44 -7.102,8.161 -2.04,2.345 -4.065,4.702 -6.126,7.028 -0.37,0.417 -0.2,0.666 0.067,0.974 1.611,1.854 3.176,3.75 4.841,5.554 2.424,2.623 4.629,5.435 7.022,8.08 1.957,2.164 3.915,4.327 5.768,6.578 3.901,4.739 8.256,9.087 11.993,13.968 0.909,1.187 2.106,2.124 3.014,3.329 2.559,3.391 1.584,6.96 -2.295,8.6 -1.888,0.799 -3.952,1.006 -5.801,1.792 -2.468,1.049 -5.053,1.729 -7.565,2.613 -2.769,0.975 -5.511,2.094 -8.402,2.729 -3.268,0.716 -5.919,-0.481 -8.064,-2.784 -2.534,-2.722 -4.783,-5.701 -7.363,-8.392 -2.525,-2.632 -4.782,-5.5 -7.145,-8.276 -2.607,-3.063 -5.443,-5.925 -7.996,-9.119" id="path370"></path><g fill="#282828" id="g374"><path d="m 272.873,101.378 v 35.525 l -23.461,-35.525 h -10.361 v 51.734 h 10.361 v -35.451 l 23.461,35.451 h 10.362 v -51.734 z m 60.171,31.233 c 0,-12.952 -9.252,-21.167 -21.093,-21.167 -11.842,0 -21.093,8.215 -21.093,21.167 0,12.878 8.955,21.167 20.797,21.167 11.915,0 21.389,-8.289 21.389,-21.167 z m -31.677,0 c 0,-8.215 4.959,-12.138 10.436,-12.138 5.476,0 10.583,3.923 10.583,12.138 0,8.141 -5.255,12.137 -10.731,12.137 -5.551,0 -10.288,-3.996 -10.288,-12.137 z m 36.635,-0.148 c 0,12.804 8.289,21.315 18.725,21.315 6.439,0 11.027,-2.961 13.47,-6.735 v 6.069 h 10.509 V 98.344 h -10.509 v 19.465 c -2.813,-3.849 -7.993,-6.365 -13.396,-6.365 -10.51,0 -18.799,8.215 -18.799,21.019 z m 32.269,0.148 c 0,7.771 -5.181,12.063 -10.88,12.063 -5.551,0 -10.805,-4.44 -10.805,-12.211 0,-7.771 5.254,-11.916 10.805,-11.916 5.699,0 10.88,4.293 10.88,12.064 z m 38.189,-12.656 c 5.329,0 9.621,3.405 9.769,8.807 h -19.464 c 0.814,-5.625 4.736,-8.807 9.695,-8.807 z m 19.465,20.279 h -11.176 c -1.332,2.738 -3.774,4.959 -8.215,4.959 -5.181,0 -9.325,-3.405 -9.843,-9.474 h 29.974 c 0.222,-1.332 0.296,-2.664 0.296,-3.996 0,-12.212 -8.363,-20.279 -20.205,-20.279 -12.138,0 -20.575,8.215 -20.575,21.167 0,12.878 8.659,21.167 20.575,21.167 10.139,0 16.948,-5.995 19.169,-13.544 z m 39.521,12.878 h 11.916 l -16.505,-25.682 16.209,-25.977 h -11.694 l -10.065,17.318 -11.176,-17.318 h -11.916 l 16.505,25.607 -16.282,26.052 h 11.693 l 10.14,-17.393 z m 30.196,-35.081 v -5.921 h -10.361 v 60.54 h 10.361 v -25.385 c 2.517,3.33 7.105,6.513 13.544,6.513 10.509,0 18.725,-8.512 18.725,-21.315 0,-12.804 -8.216,-21.019 -18.725,-21.019 -6.365,0 -11.101,3.108 -13.544,6.587 z m 21.685,14.432 c 0,7.771 -5.255,12.211 -10.879,12.211 -5.551,0 -10.806,-4.292 -10.806,-12.063 0,-7.771 5.255,-12.064 10.806,-12.064 5.624,0 10.879,4.145 10.879,11.916 z m 35.747,-12.508 c 5.329,0 9.621,3.405 9.769,8.807 h -19.464 c 0.814,-5.625 4.736,-8.807 9.695,-8.807 z m 19.465,20.279 h -11.176 c -1.332,2.738 -3.774,4.959 -8.215,4.959 -5.181,0 -9.325,-3.405 -9.843,-9.474 h 29.974 c 0.222,-1.332 0.296,-2.664 0.296,-3.996 0,-12.212 -8.363,-20.279 -20.205,-20.279 -12.138,0 -20.575,8.215 -20.575,21.167 0,12.878 8.659,21.167 20.575,21.167 10.139,0 16.948,-5.995 19.169,-13.544 z m 18.946,-7.549 c 0,-7.919 3.701,-10.288 9.844,-10.288 h 2.738 v -10.879 c -5.699,0 -9.991,2.738 -12.582,6.957 v -6.365 h -10.361 v 41.002 h 10.361 z m 21.167,7.697 c 0,9.399 5.255,12.73 13.1,12.73 h 6.513 v -8.734 h -4.811 c -3.256,0 -4.366,-1.184 -4.366,-3.922 v -19.835 h 9.177 v -8.511 h -9.177 v -10.139 h -10.436 v 10.139 h -4.884 v 8.511 h 4.884 z m 58.912,1.036 c -0.296,-15.024 -23.017,-10.361 -23.017,-17.836 0,-2.369 1.998,-3.923 5.847,-3.923 4.07,0 6.587,2.146 6.883,5.329 h 9.917 c -0.592,-8.141 -6.587,-13.544 -16.504,-13.544 -10.139,0 -16.208,5.477 -16.208,12.286 0,15.024 23.165,10.361 23.165,17.688 0,2.368 -2.22,4.219 -6.291,4.219 -4.145,0 -7.031,-2.369 -7.401,-5.477 H 639.52 c 0.444,7.623 7.623,13.618 17.91,13.618 9.991,0 16.134,-5.329 16.134,-12.36 z" id="path372"></path></g></g></svg> 